<svg height="48px" viewBox="0 0 1731.79 1682.24" xmlns="http://www.w3.org/2000/svg" id="Layer_1" style="enable-background:new 0 0 1731.79 1682.24" version="1.1" x="0px" xml:space="preserve" xmlns:xlink="http://www.w3.org/1999/xlink" y="0px"><style type="text/css">.st0 {
  fill: #eb6823;
}

.st1 {
  fill: #026f3f;
}</style><circle cx="877.05" cy="328.06" r="206.81" class="st0" id="XMLID_5_"></circle><g id="XMLID_2_"><g><path d="M522.28,1457.87l-15.98,224.11h-75.63c14.82-34.59,10.7-70.11,5.68-88.34
                c-11.73-42.75-27.57-86.42-94.37-109.75c-35.46-12.39-80.85-20.1-131.91-24.05C314.87,1458.94,420.41,1457.77,522.28,1457.87z" class="st1"></path><path d="M0.25,1460.91c73.25-5.08,145.95-6.02,209.82-1.06C139.35,1460.46,68.98,1460.97,0.25,1460.91z" class="st1"></path></g><g></g></g><path d="M575.34,689.91c1.61-24.42,9.48-165.22-56.5-195.3c-3.71-1.69-7.69-3.05-11.97-4.02
        c20.58-5.5,61.78-13.05,105.67,4.02c66.86,26.02,111.98,98.3,114.61,183.25l-1.57,781.77h441.19L586.51,0.47L6.25,1459.63h515.81
        C542.2,1128.15,557.22,1021.48,575.34,689.91z" class="st1" id="XMLID_7_"></path><polygon class="st1" id="XMLID_8_" points="725.59,1460.1 1731.79,1460.1 1201.02,0 725.89,1307.02 "></polygon></svg>